<svg width="128" height="128" viewBox="0 0 128 128" xmlns="http://www.w3.org/2000/svg">
  <!-- Plate -->
  <ellipse cx="64" cy="85" rx="50" ry="15" fill="#f5f5f5" stroke="#d9d9d9" stroke-width="1"/>
  
  <!-- Cookies -->
  <circle cx="45" cy="75" r="15" fill="#E8D0A9" stroke="#C9B28F" stroke-width="1"/>
  <circle cx="75" cy="80" r="15" fill="#E8D0A9" stroke="#C9B28F" stroke-width="1"/>
  <circle cx="60" cy="65" r="15" fill="#E8D0A9" stroke="#C9B28F" stroke-width="1"/>
  
  <!-- Lavender bits on cookies -->
  <circle cx="40" cy="70" r="1" fill="#967BB6"/>
  <circle cx="48" cy="75" r="1" fill="#967BB6"/>
  <circle cx="42" cy="80" r="1" fill="#967BB6"/>
  <circle cx="53" cy="73" r="1" fill="#967BB6"/>
  
  <circle cx="70" cy="75" r="1" fill="#967BB6"/>
  <circle cx="78" cy="83" r="1" fill="#967BB6"/>
  <circle cx="75" cy="76" r="1" fill="#967BB6"/>
  <circle cx="82" cy="80" r="1" fill="#967BB6"/>
  
  <circle cx="57" cy="60" r="1" fill="#967BB6"/>
  <circle cx="66" cy="64" r="1" fill="#967BB6"/>
  <circle cx="60" cy="70" r="1" fill="#967BB6"/>
  <circle cx="54" cy="65" r="1" fill="#967BB6"/>
  
  <!-- Lavender Sprigs -->
  <g transform="translate(85, 35) rotate(30)">
    <!-- Stem -->
    <line x1="0" y1="0" x2="0" y2="30" stroke="#9CAF88" stroke-width="1.5"/>
    
    <!-- Lavender buds -->
    <ellipse cx="-3" cy="5" rx="2" ry="3" fill="#967BB6" transform="rotate(-20)"/>
    <ellipse cx="3" cy="7" rx="2" ry="3" fill="#967BB6" transform="rotate(20)"/>
    <ellipse cx="-3" cy="12" rx="2" ry="3" fill="#967BB6" transform="rotate(-20)"/>
    <ellipse cx="3" cy="14" rx="2" ry="3" fill="#967BB6" transform="rotate(20)"/>
    <ellipse cx="-3" cy="19" rx="2" ry="3" fill="#967BB6" transform="rotate(-20)"/>
    <ellipse cx="3" cy="21" rx="2" ry="3" fill="#967BB6" transform="rotate(20)"/>
  </g>
  
  <g transform="translate(95, 50) rotate(15)">
    <!-- Stem -->
    <line x1="0" y1="0" x2="0" y2="20" stroke="#9CAF88" stroke-width="1.5"/>
    
    <!-- Lavender buds -->
    <ellipse cx="-3" cy="5" rx="2" ry="3" fill="#967BB6" transform="rotate(-20)"/>
    <ellipse cx="3" cy="7" rx="2" ry="3" fill="#967BB6" transform="rotate(20)"/>
    <ellipse cx="-3" cy="12" rx="2" ry="3" fill="#967BB6" transform="rotate(-20)"/>
    <ellipse cx="3" cy="14" rx="2" ry="3" fill="#967BB6" transform="rotate(20)"/>
  </g>
</svg> 