
<svg width="64" height="64" viewBox="0 0 64 64" fill="none" xmlns="http://www.w3.org/2000/svg">
  <rect width="64" height="64" rx="12" fill="#F5E6D3" />
  <path d="M32 16C23.2 16 16 23.2 16 32C16 40.8 23.2 48 32 48C40.8 48 48 40.8 48 32C48 23.2 40.8 16 32 16ZM32 44C25.4 44 20 38.6 20 32C20 25.4 25.4 20 32 20C38.6 20 44 25.4 44 32C44 38.6 38.6 44 32 44Z" fill="#9CAF88" />
  <path d="M32 24C27.6 24 24 27.6 24 32C24 36.4 27.6 40 32 40C36.4 40 40 36.4 40 32C40 27.6 36.4 24 32 24ZM32 36C29.8 36 28 34.2 28 32C28 29.8 29.8 28 32 28C34.2 28 36 29.8 36 32C36 34.2 34.2 36 32 36Z" fill="#E7C4B5" />
</svg>
